<svg version="1.2" xmlns="http://www.w3.org/2000/svg" viewBox="0 0 274 241" width="274" height="241">
	<title>bg-sidebar-desktop-svg</title>
	<defs>
		<clipPath clipPathUnits="userSpaceOnUse" id="cp1">
			<path d="m0-317c0-5.52 4.48-10 10-10h254c5.52 0 10 4.48 10 10v548c0 5.52-4.48 10-10 10h-254c-5.52 0-10-4.48-10-10z"/>
		</clipPath>
	</defs>
	<style>
		.s0 { fill: #483eff } 
		.s1 { fill: #6259ff } 
		.s2 { fill: #f9818e } 
		.s3 { fill: none;stroke: #ffffff;stroke-linecap: round;stroke-linejoin: bevel;stroke-width: 5 } 
		.s4 { fill: #ffaf7e } 
	</style>
	<path id="Layer" class="s0" d="m0-317c0-5.5 4.5-10 10-10h254c5.5 0 10 4.5 10 10v548c0 5.5-4.5 10-10 10h-254c-5.5 0-10-4.5-10-10z"/>
	<g id="Clip-Path" clip-path="url(#cp1)">
		<g id="Layer">
			<path id="Layer" fill-rule="evenodd" class="s1" d="m-34.7 216.1c37.9 89.4 203.5 141.9 246.7 69.4 43.2-72.5-66.1-85.6-104.8-160.5-38.6-75-68.6-121.7-124.5-104.7-55.8 17.1-55.3 106.4-17.4 195.8z"/>
			<path id="Layer" fill-rule="evenodd" class="s2" d="m233.1 274.2c60.7-28.3 92.8-143.6 41.9-171.6-51-28-57.4 47.6-108.1 76-50.7 28.4-82.1 50.2-69 88.3 13.1 38 74.5 35.5 135.2 7.3z"/>
			<path id="Layer" class="s3" d="m165.3 142.1l10.6-10.8m33.6 16.3l-12.5-10.5m-9.4 24.9l-6.9 14.8"/>
			<path id="Layer" class="s4" d="m0.3 219.9c37 0 67-30 67-67 0-37-30-67-67-67-37 0-67 30-67 67 0 37 30 67 67 67z"/>
		</g>
	</g>
</svg>